<?xml version="1.0" encoding="UTF-8" standalone="no"?>
<!-- Created with Inkscape (http://www.inkscape.org/) -->

<svg
   width="98.189323mm"
   height="96.617599mm"
   viewBox="0 0 98.189323 96.617599"
   version="1.1"
   id="svg892"
   inkscape:version="1.2 (dc2aedaf03, 2022-05-15)"
   sodipodi:docname="Viar-Logo-extra.svg"
   xmlns:inkscape="http://www.inkscape.org/namespaces/inkscape"
   xmlns:sodipodi="http://sodipodi.sourceforge.net/DTD/sodipodi-0.dtd"
   xmlns="http://www.w3.org/2000/svg"
   xmlns:svg="http://www.w3.org/2000/svg">
  <sodipodi:namedview
     id="namedview894"
     pagecolor="#ffffff"
     bordercolor="#666666"
     borderopacity="1.0"
     inkscape:pageshadow="2"
     inkscape:pageopacity="0.0"
     inkscape:pagecheckerboard="0"
     inkscape:document-units="mm"
     showgrid="false"
     inkscape:zoom="0.4204826"
     inkscape:cx="489.91326"
     inkscape:cy="323.43788"
     inkscape:window-width="1366"
     inkscape:window-height="719"
     inkscape:window-x="0"
     inkscape:window-y="26"
     inkscape:window-maximized="1"
     inkscape:current-layer="layer1"
     inkscape:showpageshadow="2"
     inkscape:deskcolor="#d1d1d1" />
  <defs
     id="defs889" />
  <g
     inkscape:label="Layer 1"
     inkscape:groupmode="layer"
     id="layer1"
     transform="translate(23.925176,-63.066199)">
    <rect
       style="fill:none;fill-opacity:1;stroke:none;stroke-width:0.264583"
       id="rect17431"
       width="97.924744"
       height="96.35302"
       x="-23.792885"
       y="63.19849" />
    <g
       id="g1474"
       transform="translate(-142.8227,-1.4009458)">
      <g
         id="g1210"
         transform="matrix(0.65988642,0,0,0.64500205,268.6113,40.299206)">
        <path
           id="path1012"
           style="fill:#ff1a00;fill-opacity:1;fill-rule:evenodd;stroke-width:0.197186"
           d="m -152.47943,59.684631 a 52.68195,52.681951 0 0 0 -52.68164,52.681649 52.68195,52.681951 0 0 0 52.68164,52.68245 52.68195,52.681951 0 0 0 52.681638,-52.68245 52.68195,52.681951 0 0 0 -52.681638,-52.681649 z" />
        <path
           id="path1014"
           style="fill:#ff1a00;fill-opacity:1;fill-rule:evenodd;stroke-width:0.12847"
           d="m -152.47943,78.043414 a 34.323203,34.323204 0 0 0 -34.323,34.323006 34.323203,34.323204 0 0 0 34.323,34.32353 34.323203,34.323204 0 0 0 34.323,-34.32353 34.323203,34.323204 0 0 0 -34.323,-34.323006 z" />
        <rect
           style="fill:none;fill-opacity:1;stroke:none;stroke-width:0.264583"
           id="rect1016"
           width="97.924744"
           height="96.35302"
           x="-201.90013"
           y="64.261002" />
        <path
           id="path1018"
           style="color:#000000;opacity:0.916162;fill:#ffffff;fill-opacity:1;stroke-width:1.2162;stroke-linecap:round;stroke-linejoin:round"
           d="m -152.53338,64.134845 a 2.4136562,2.4136103 0 0 0 -1.46758,0.499021 c -10.5025,8.067782 -16.66177,20.562565 -16.66327,33.805861 a 2.4136562,2.4136103 0 0 0 0,0.004 c 0,0.580434 0.0165,1.158572 0.0405,1.735843 1.56027,-0.696837 3.15965,-1.306421 4.7879,-1.822577 0.0265,-11.037198 4.99985,-21.35499 13.33161,-28.496459 2.27065,1.942195 4.34413,4.098828 6.12338,6.48466 2.36642,0.409937 4.69148,1.053781 6.93294,1.920014 -0.2061,-0.383667 -0.4173,-0.765339 -0.63538,-1.143216 a 2.4136562,2.4136103 0 0 0 0,-6.34e-4 2.4136562,2.4136103 0 0 0 0,-6.57e-4 2.4136562,2.4136103 0 0 0 0,-6.32e-4 c -2.80504,-4.843537 -6.53729,-9.085837 -10.98174,-12.487639 a 2.4136562,2.4136103 0 0 0 -1.46814,-0.496527 z m 0.0165,13.619173 c -1.65918,0 -3.29066,0.120403 -4.88789,0.347547 -1.06458,1.518188 -2.01303,3.117083 -2.83382,4.779583 2.46491,-0.64382 5.05237,-0.98734 7.72171,-0.98734 15.33539,0 27.97762,11.312145 30.06766,26.061682 1.5916,1.46037 3.07513,3.03936 4.43907,4.71673 0,-0.13455 0.01,-0.26735 0.01,-0.40222 0,-19.038087 -15.47829,-34.515982 -34.51683,-34.515982 z m -17.00583,4.486084 c -10.44966,5.938429 -17.51109,17.171399 -17.51109,30.029898 0,8.33036 2.96358,15.97916 7.89197,21.94782 1.84492,0.12561 3.69786,0.0985 5.53955,-0.0748 -5.72752,-5.52178 -9.29165,-13.27182 -9.29165,-21.87304 0,-9.62805 4.4595,-18.195395 11.42857,-23.757072 0.49387,-2.134304 1.14338,-4.232401 1.94265,-6.272841 z m 28.27089,3.911647 c 1.35336,3.938074 2.05438,8.088052 2.05455,12.285464 0,4.975387 -1.02479,9.799567 -2.8955,14.258287 l -0.0645,-0.0189 c -0.61297,1.52623 -1.33236,3.00125 -2.13122,4.42888 -1.85848,3.18705 -4.18106,6.11858 -6.91531,8.68812 0.0431,0.0366 0.0873,0.0704 0.13009,0.10703 0,6.9e-4 0,0.004 0,0.004 0.3656,0.31072 0.73774,0.61436 1.11683,0.90942 0.45575,0.35747 0.92167,0.70348 1.39653,1.03698 0.12868,0.0904 0.26347,0.17223 0.39348,0.26082 0.3475,0.23689 0.69417,0.47464 1.05076,0.69889 0,0 0,-6.6e-4 0,-6.6e-4 0.008,0.004 0.008,0.006 0.0124,0.009 2.01487,-1.98365 3.81462,-4.16364 5.39126,-6.49411 0,-0.004 0,-0.006 0.008,-0.01 0.33485,-0.49533 0.65597,-0.99937 0.96972,-1.50839 0.0703,-0.11419 0.14365,-0.22651 0.21311,-0.34125 0.26662,-0.44175 0.52117,-0.89044 0.77175,-1.34181 0.10666,-0.19173 0.21501,-0.38237 0.31864,-0.57568 0.21393,-0.39966 0.41786,-0.8045 0.61907,-1.2111 0.12644,-0.25507 0.25322,-0.50982 0.37454,-0.76738 0.17019,-0.3617 0.3327,-0.72681 0.4928,-1.09354 0.13612,-0.31148 0.27034,-0.62362 0.3991,-0.93833 0.0644,-0.15799 0.13728,-0.31194 0.19989,-0.47074 l -0.0141,-0.004 c 1.94233,-4.91421 2.98994,-10.20133 2.9935,-15.62021 a 2.4136562,2.4136103 0 0 0 0,-6.28e-4 2.4136562,2.4136103 0 0 0 0,-6.59e-4 2.4136562,2.4136103 0 0 0 0,-6.28e-4 2.4136562,2.4136103 0 0 0 0,-6.59e-4 c 9e-5,-2.976308 -0.31681,-5.930949 -0.92762,-8.819405 -1.83508,-1.391694 -3.8391,-2.556657 -5.95378,-3.46857 z m -10.88614,12.077449 c -0.11116,-6.98e-4 -0.22246,0.009 -0.33369,0.009 -0.1035,-9.9e-5 -0.20717,-0.004 -0.31053,-0.004 v 0 c -0.36752,0.004 -0.73371,0.02076 -1.10047,0.03272 -0.44128,0.01436 -0.88198,0.03342 -1.32292,0.06156 -0.52637,0.03372 -1.05193,0.07203 -1.57565,0.12514 -0.33451,0.03382 -0.66788,0.07812 -1.00181,0.120036 -0.41564,0.05218 -0.83037,0.108603 -1.24377,0.172841 -1.0043,0.156068 -2.00618,0.335592 -3.00113,0.563733 v 0.009 c -6.88545,1.579152 -13.34749,4.850282 -18.72717,9.596212 -0.0971,0.83835 -0.15961,1.68205 -0.18359,2.53088 -0.0479,1.40305 0.0165,2.83583 0.18416,4.25484 5.24538,-5.89341 12.1263,-9.88601 19.5808,-11.63819 l 0.0272,0.15082 c 3.59811,-0.90109 7.27298,-1.30453 10.93387,-1.08603 2.83968,0.19604 5.68112,0.77402 8.48715,1.6416 0.009,-0.0456 0.0141,-0.0918 0.0224,-0.1376 0,2e-4 0,3.1e-4 0,6.4e-4 0.0339,-0.19054 0.0612,-0.38212 0.0924,-0.57317 0.0314,-0.19439 0.0662,-0.38834 0.0943,-0.58322 0.0298,-0.20571 0.0546,-0.41225 0.0802,-0.61844 0.0265,-0.20614 0.0554,-0.41181 0.0777,-0.61841 0.0298,-0.2705 0.0521,-0.5415 0.0753,-0.81262 0.0124,-0.13407 0.0265,-0.26796 0.0364,-0.40222 0.0314,-0.41488 0.0562,-0.83047 0.072,-1.246282 -0.16928,-0.04658 -0.34064,-0.0829 -0.51033,-0.127538 -0.39083,-0.103126 -0.78216,-0.200425 -1.17406,-0.292245 -0.23537,-0.05497 -0.47031,-0.110917 -0.70641,-0.162126 -0.51786,-0.112135 -1.03645,-0.214263 -1.55555,-0.306705 -0.24521,-0.0437 -0.49082,-0.0831 -0.7366,-0.122437 -0.3943,-0.06316 -0.78878,-0.119906 -1.18349,-0.171593 -0.35883,-0.04719 -0.71791,-0.08919 -1.07781,-0.12691 -0.37272,-0.0393 -0.74544,-0.07392 -1.11808,-0.103016 -0.16242,-0.01277 -0.32393,-0.03402 -0.48651,-0.0446 -0.0857,-0.006 -0.17186,-0.005 -0.25761,-0.01 -0.45947,-0.02764 -0.91877,-0.04928 -1.37767,-0.06156 -0.13281,-0.004 -0.26521,-9.97e-4 -0.39786,-0.004 -0.12834,-0.004 -0.25628,-0.01278 -0.38463,-0.01436 z m 19.44376,4.892062 c -0.18475,1.69168 -0.46535,3.37311 -0.84097,5.03346 9.54082,5.54225 15.98822,15.00609 18.0063,25.7891 -3.05777,1.08039 -6.21717,1.8402 -9.43487,2.1469 -1.5501,1.8036 -3.27279,3.45783 -5.14673,4.92287 0.69235,0.0341 1.38569,0.0565 2.08085,0.0565 a 2.4136562,2.4136103 0 0 0 0.008,0 c 5.59694,-0.009 11.13673,-1.11822 16.30504,-3.26621 a 2.4136562,2.4136103 0 0 0 1.46566,-2.5441 c -1.73594,-13.12907 -9.4779,-24.71055 -20.94657,-31.33343 a 2.4136562,2.4136103 0 0 0 0,-6.6e-4 2.4136562,2.4136103 0 0 0 0,-6.5e-4 2.4136562,2.4136103 0 0 0 0,-6.4e-4 c -0.49124,-0.2832 -0.9928,-0.54095 -1.49263,-0.8032 z m -31.93318,3.97323 c -0.0513,0.0188 -0.1024,0.0399 -0.15398,0.0584 -3.4e-4,-7e-4 0,-0.004 0,-0.004 -0.2328,0.0848 -0.46286,0.17692 -0.69392,0.26649 -0.12843,0.0498 -0.25794,0.0971 -0.38587,0.14824 -0.26439,0.10582 -0.52622,0.21786 -0.78812,0.32998 -0.12288,0.0523 -0.24669,0.10252 -0.36892,0.15655 -0.27951,0.12323 -0.55638,0.25299 -0.83277,0.38337 -0.10253,0.0484 -0.2065,0.094 -0.30863,0.14332 -0.37934,0.18326 -0.75594,0.37236 -1.12875,0.56875 0.31509,1.21088 0.69864,2.3995 1.11751,3.57417 0.072,0.20233 0.13992,0.40609 0.21492,0.60713 0.16077,0.43027 0.33328,0.85503 0.50778,1.27959 0.12004,0.29271 0.24007,0.58515 0.36644,0.87484 0.16059,0.36741 0.32748,0.73153 0.49841,1.0942 0.16317,0.34707 0.33171,0.69095 0.50405,1.03321 0.15895,0.31497 0.31847,0.62925 0.48518,0.94018 0.21668,0.40512 0.44361,0.80405 0.67317,1.20167 0.14109,0.24399 0.27829,0.48973 0.42417,0.73096 0.32136,0.53215 0.65695,1.05495 1.00123,1.57246 0.0719,0.10751 0.13809,0.21756 0.21054,0.32429 0.8895,1.31132 1.85508,2.57037 2.88667,3.77653 0.0124,0.0144 0.0224,0.0288 0.0348,0.0427 v -10e-4 c 3.0934,3.6076 6.79729,6.72027 11.0125,9.1576 a 2.4136562,2.4136103 0 0 0 0,0.004 c 2.34424,1.35354 4.80369,2.47174 7.34079,3.35232 2.14404,-0.84411 4.18436,-1.9502 6.05492,-3.31084 -3.84283,-0.82387 -7.55094,-2.2406 -10.98298,-4.22214 -3.35375,-1.93921 -6.32312,-4.36478 -8.85607,-7.15967 l 0.12255,-0.0584 c -1.85517,-1.99252 -3.48275,-4.1657 -4.86447,-6.47715 -1.84591,-3.21778 -3.2331,-6.71369 -4.0953,-10.38686 z m -23.89152,10.91795 c -0.31631,0.4985 -0.62726,1.00245 -0.92514,1.51778 a 2.4136562,2.4136103 0 0 0 0,0.005 c -2.78883,4.84519 -4.59777,10.19089 -5.32336,15.73405 a 2.4136562,2.4136103 0 0 0 1.46813,2.54156 c 5.16343,2.14324 10.69743,3.25178 16.288,3.25932 a 2.4136562,2.4136103 0 0 0 0.009,0 c 7.48427,-1.5e-4 14.83514,-1.97072 21.3167,-5.71293 0.49346,-0.28495 0.97733,-0.58246 1.45681,-0.88551 -1.37609,-1.00725 -2.69372,-2.09452 -3.94693,-3.25176 -5.72859,3.28972 -12.21768,5.02291 -18.82468,5.02346 -4.2841,-0.006 -8.49128,-0.87835 -12.52084,-2.30402 0.58178,-3.13473 1.4803,-6.20178 2.78552,-9.09916 -0.82317,-2.21092 -1.41372,-4.50103 -1.77619,-6.82783 z m 65.29603,2.30841 c -3.52153,12.88029 -15.28247,22.32554 -29.29401,22.32554 -3.71233,0 -7.26612,-0.66462 -10.5518,-1.87851 -2.07945,0.68075 -4.20976,1.20593 -6.36728,1.57309 5.00293,2.82495 10.77311,4.44521 16.91908,4.44521 14.51924,0 26.95937,-9.00616 32.05125,-21.72406 -0.79844,-1.64687 -1.72037,-3.23369 -2.75724,-4.74127 z"
           inkscape:export-filename="/home/vishal/Documents/viar-logo1.png"
           inkscape:export-xdpi="36.533211"
           inkscape:export-ydpi="36.533211" />
      </g>
    </g>
  </g>
</svg>
